name Walk7.mot
datacolumns 19
datarows 27
range 2.12000000 2.14600000
endheader

                time	   L_ground_force_vx	   L_ground_force_vy	   L_ground_force_vz	   L_ground_force_px	   L_ground_force_py	   L_ground_force_pz	   R_ground_force_vx	   R_ground_force_vy	   R_ground_force_vz	   R_ground_force_px	   R_ground_force_py	   R_ground_force_pz	   L_ground_torque_x	   L_ground_torque_y	   L_ground_torque_z	   R_ground_torque_x	   R_ground_torque_y	   R_ground_torque_z	
          2.12000000	          0.00000000	          0.00000000	          0.00000000	          0.00000000	          0.00000000	          0.00000000	          0.00000000	          0.00000000	          0.00000000	          0.00000000	          0.00000000	          0.00000000	          0.00000000	          0.00000000	          0.00000000	          0.00000000	          0.00000000	          0.00000000	
          2.12100000	          0.00000000	          0.00000000	          0.00000000	          0.00000000	          0.00000000	          0.00000000	          0.00000000	          0.00000000	          0.00000000	          0.00000000	          0.00000000	          0.00000000	          0.00000000	          0.00000000	          0.00000000	          0.00000000	          0.00000000	          0.00000000	
          2.12200000	          0.00000000	          0.00000000	          0.00000000	          0.00000000	          0.00000000	          0.00000000	          0.00000000	          0.00000000	          0.00000000	          0.00000000	          0.00000000	          0.00000000	          0.00000000	          0.00000000	          0.00000000	          0.00000000	          0.00000000	          0.00000000	
          2.12300000	          0.00000000	          0.00000000	          0.00000000	          0.00000000	          0.00000000	          0.00000000	          0.00000000	          0.00000000	          0.00000000	          0.00000000	          0.00000000	          0.00000000	          0.00000000	          0.00000000	          0.00000000	          0.00000000	          0.00000000	          0.00000000	
          2.12400000	          0.00000000	          0.00000000	          0.00000000	          0.00000000	          0.00000000	          0.00000000	          0.00000000	          0.00000000	          0.00000000	          0.00000000	          0.00000000	          0.00000000	          0.00000000	          0.00000000	          0.00000000	          0.00000000	          0.00000000	          0.00000000	
          2.12500000	          0.00000000	          0.00000000	          0.00000000	          0.00000000	          0.00000000	          0.00000000	          0.00000000	          0.00000000	          0.00000000	          0.00000000	          0.00000000	          0.00000000	          0.00000000	          0.00000000	          0.00000000	          0.00000000	          0.00000000	          0.00000000	
          2.12600000	          0.00000000	          0.00000000	          0.00000000	          0.00000000	          0.00000000	          0.00000000	          0.00000000	          0.00000000	          0.00000000	          0.00000000	          0.00000000	          0.00000000	          0.00000000	          0.00000000	          0.00000000	          0.00000000	          0.00000000	          0.00000000	
          2.12700000	          0.00000000	          0.00000000	          0.00000000	          0.00000000	          0.00000000	          0.00000000	         -9.04888264	         14.60287208	          0.61554870	         -0.45678659	          0.00000000	         -0.07095871	          0.00000000	          0.00000000	          0.00000000	          0.00000000	         -0.03506538	          0.00000000	
          2.12800000	          0.00000000	          0.00000000	          0.00000000	          0.00000000	          0.00000000	          0.00000000	        -13.83002476	         24.55731380	          1.17797471	         -0.45532911	          0.00000000	         -0.06705818	          0.00000000	          0.00000000	          0.00000000	          0.00000000	         -0.00251362	          0.00000000	
          2.12900000	          0.00000000	          0.00000000	          0.00000000	          0.00000000	          0.00000000	          0.00000000	        -18.98809393	         37.29687605	          1.97361180	         -0.45457358	          0.00000000	         -0.06506853	          0.00000000	          0.00000000	          0.00000000	          0.00000000	          0.03221690	          0.00000000	
          2.13000000	          0.00000000	          0.00000000	          0.00000000	          0.00000000	          0.00000000	          0.00000000	        -24.32130574	         53.63701944	          3.06333360	         -0.45434537	          0.00000000	         -0.06418130	          0.00000000	          0.00000000	          0.00000000	          0.00000000	          0.06682874	          0.00000000	
          2.13100000	          0.00000000	          0.00000000	          0.00000000	          0.00000000	          0.00000000	          0.00000000	        -29.63100489	         74.70437146	          4.49163717	         -0.45433163	          0.00000000	         -0.06358699	          0.00000000	          0.00000000	          0.00000000	          0.00000000	          0.11272160	          0.00000000	
          2.13200000	          0.00000000	          0.00000000	          0.00000000	          0.00000000	          0.00000000	          0.00000000	        -34.58697659	        101.46801448	          6.23943903	         -0.45422231	          0.00000000	         -0.06290843	          0.00000000	          0.00000000	          0.00000000	          0.00000000	          0.17608213	          0.00000000	
          2.13300000	          0.00000000	          0.00000000	          0.00000000	          0.00000000	          0.00000000	          0.00000000	        -38.73000452	        134.22917995	          8.18824764	         -0.45392335	          0.00000000	         -0.06220534	          0.00000000	          0.00000000	          0.00000000	          0.00000000	          0.24779366	          0.00000000	
          2.13400000	          0.00000000	          0.00000000	          0.00000000	          0.00000000	          0.00000000	          0.00000000	        -41.58445750	        172.25455295	         10.11345037	         -0.45351187	          0.00000000	         -0.06162368	          0.00000000	          0.00000000	          0.00000000	          0.00000000	          0.31347440	          0.00000000	
          2.13500000	          0.00000000	          0.00000000	          0.00000000	          0.00000000	          0.00000000	          0.00000000	        -42.80961306	        213.74329305	         11.71205779	         -0.45307636	          0.00000000	         -0.06116556	          0.00000000	          0.00000000	          0.00000000	          0.00000000	          0.36404683	          0.00000000	
          2.13600000	          0.00000000	          0.00000000	          0.00000000	          0.00000000	          0.00000000	          0.00000000	        -42.31699890	        256.12406046	         12.64466233	         -0.45267501	          0.00000000	         -0.06073645	          0.00000000	          0.00000000	          0.00000000	          0.00000000	          0.39395660	          0.00000000	
          2.13700000	          0.00000000	          0.00000000	          0.00000000	          0.00000000	          0.00000000	          0.00000000	        -40.31327856	        296.57083816	         12.57990070	         -0.45234922	          0.00000000	         -0.06028099	          0.00000000	          0.00000000	          0.00000000	          0.00000000	          0.39644979	          0.00000000	
          2.13800000	          0.00000000	          0.00000000	          0.00000000	          0.00000000	          0.00000000	          0.00000000	        -37.25103515	        332.54685382	         11.25250722	         -0.45210504	          0.00000000	         -0.05981215	          0.00000000	          0.00000000	          0.00000000	          0.00000000	          0.36518175	          0.00000000	
          2.13900000	          0.00000000	          0.00000000	          0.00000000	          0.00000000	          0.00000000	          0.00000000	        -33.70884054	        362.20307314	          8.52907471	         -0.45191186	          0.00000000	         -0.05935879	          0.00000000	          0.00000000	          0.00000000	          0.00000000	          0.29855452	          0.00000000	
          2.14000000	          0.00000000	          0.00000000	          0.00000000	          0.00000000	          0.00000000	          0.00000000	        -30.25377159	        384.61475844	          4.45567874	         -0.45173816	          0.00000000	         -0.05892684	          0.00000000	          0.00000000	          0.00000000	          0.00000000	          0.20138262	          0.00000000	
          2.14100000	          0.00000000	          0.00000000	          0.00000000	          0.00000000	          0.00000000	          0.00000000	        -27.33246375	        399.84499073	         -0.73143044	         -0.45156739	          0.00000000	         -0.05850249	          0.00000000	          0.00000000	          0.00000000	          0.00000000	          0.08472086	          0.00000000	
          2.14200000	          0.00000000	          0.00000000	          0.00000000	          0.00000000	          0.00000000	          0.00000000	        -25.22224923	        408.79830419	         -6.64068843	         -0.45138175	          0.00000000	         -0.05808600	          0.00000000	          0.00000000	          0.00000000	          0.00000000	         -0.03604758	          0.00000000	
          2.14300000	          0.00000000	          0.00000000	          0.00000000	          0.00000000	          0.00000000	          0.00000000	        -24.04136110	        412.94726223	        -12.80116429	         -0.45115629	          0.00000000	         -0.05770594	          0.00000000	          0.00000000	          0.00000000	          0.00000000	         -0.14718153	          0.00000000	
          2.14400000	          0.00000000	          0.00000000	          0.00000000	          0.00000000	          0.00000000	          0.00000000	        -23.78199272	        414.05015815	        -18.75314936	         -0.45087063	          0.00000000	         -0.05738284	          0.00000000	          0.00000000	          0.00000000	          0.00000000	         -0.24105729	          0.00000000	
          2.14500000	          0.00000000	          0.00000000	          0.00000000	          0.00000000	          0.00000000	          0.00000000	        -24.34788511	        413.89344114	        -24.11497949	         -0.45051277	          0.00000000	         -0.05710751	          0.00000000	          0.00000000	          0.00000000	          0.00000000	         -0.31359054	          0.00000000	
          2.14600000	          0.00000000	          0.00000000	          0.00000000	          0.00000000	          0.00000000	          0.00000000	        -25.60357175	        414.07475174	        -28.60887982	         -0.45007257	          0.00000000	         -0.05687240	          0.00000000	          0.00000000	          0.00000000	          0.00000000	         -0.36097120	          0.00000000	
